<?xml version="1.0" standalone="no"?>
<!DOCTYPE svg PUBLIC "-//W3C//DTD SVG 20010904//EN"
 "http://www.w3.org/TR/2001/REC-SVG-20010904/DTD/svg10.dtd">
<svg version="1.0" xmlns="http://www.w3.org/2000/svg"
 width="64.000000pt" height="64.000000pt" viewBox="0 0 64.000000 64.000000"
 preserveAspectRatio="xMidYMid meet">
<metadata>
Created by potrace 1.16, written by Peter Selinger 2001-2019
</metadata>
<g transform="translate(0.000000,64.000000) scale(0.100000,-0.100000)"
fill="#000000" stroke="none">
<path d="M184 518 l-104 -102 0 -198 0 -198 95 0 95 0 0 86 c0 101 9 124 50
124 41 0 50 -23 50 -124 l0 -86 95 0 95 0 0 198 0 198 -104 102 c-89 88 -108
102 -136 102 -28 0 -47 -14 -136 -102z m229 -46 l87 -87 0 -153 0 -152 -35 0
-35 0 0 68 c0 84 -23 126 -74 141 -52 14 -103 -3 -126 -42 -15 -23 -20 -50
-20 -99 l0 -68 -35 0 -35 0 0 152 0 153 87 87 c48 49 90 88 93 88 3 0 45 -39
93 -88z"/>
</g>
</svg>
